<?xml version="1.0" standalone="no"?>
<!DOCTYPE svg PUBLIC "-//W3C//DTD SVG 20010904//EN"
 "http://www.w3.org/TR/2001/REC-SVG-20010904/DTD/svg10.dtd">
<svg version="1.0" xmlns="http://www.w3.org/2000/svg"
 width="1024.000000pt" height="1024.000000pt" viewBox="0 0 1024.000000 1024.000000"
 preserveAspectRatio="xMidYMid meet">

<g transform="translate(0.000000,1024.000000) scale(0.100000,-0.100000)"
fill="#000000" stroke="none">
<path d="M4478 9468 l-3 -163 -147 -3 -148 -3 -2 -177 -3 -177 -167 -3 -168
-2 -2 -178 -3 -177 -434 -3 -433 -2 3 -178 4 -177 -179 -3 c-137 -2 -181 1
-188 10 -4 7 -8 171 -8 363 l0 350 -329 0 -329 0 -1 -182 0 -183 145 0 144 0
0 -270 0 -270 190 0 191 0 -2 -130 -1 -130 -338 0 -339 0 6 391 c5 330 4 392
-8 400 -8 5 -83 9 -166 9 l-153 0 0 -570 0 -570 -190 0 -190 0 0 -405 0 -405
188 -2 187 -3 3 -542 2 -543 170 0 170 0 0 -170 0 -169 137 -3 138 -3 1 -205
c1 -113 2 -690 3 -1282 l1 -1078 185 0 185 0 0 515 0 515 185 0 185 0 0 -200
0 -200 750 0 750 0 2 203 3 202 198 3 197 2 0 371 0 370 118 -5 c64 -2 172 -5
240 -5 l122 -1 0 -365 0 -365 200 0 200 0 0 -113 c0 -63 3 -155 6 -205 l7 -92
753 0 754 0 0 200 0 200 190 0 191 0 -5 -502 c-2 -276 -2 -508 1 -515 4 -10
46 -13 189 -13 l184 0 0 1285 0 1284 108 3 107 3 1 30 c1 17 2 92 3 168 l1
137 150 0 150 0 2 163 3 162 163 3 162 2 0 180 0 180 170 0 170 0 0 185 0 185
-329 0 -328 0 -8 -360 -7 -360 -259 0 -259 0 0 175 0 175 -190 0 -190 0 0 195
0 195 450 0 450 0 0 575 0 575 -150 0 -150 0 0 -160 0 -160 -110 0 -110 0 0
385 0 385 -190 0 -190 0 0 175 0 175 -429 0 c-382 0 -430 2 -435 16 -3 9 -6
94 -6 190 l0 175 -172 -3 -173 -3 -3 178 -2 177 -535 0 -535 0 0 -174 c0 -114
-4 -177 -11 -181 -6 -4 -114 -4 -240 0 l-229 8 0 338 0 339 -195 0 -195 0 -2
-162z m234 -659 c-2 -89 -1 -176 3 -195 l6 -34 314 0 315 0 0 -165 0 -165 200
0 200 0 0 -105 0 -105 160 0 160 0 0 -130 0 -130 -355 0 -355 0 0 145 0 145
-240 0 -240 0 -5 23 c-3 12 -5 31 -4 42 1 11 1 48 1 83 l-2 62 -200 0 -200 0
0 299 c0 164 3 319 6 345 l7 46 116 0 116 0 -3 -161z m1698 -39 l0 -200 135 0
136 0 -3 -155 -3 -155 168 0 c152 0 167 -2 167 -17 2 -64 2 -167 1 -460 l-1
-333 -135 0 -135 0 0 165 0 165 -52 1 c-29 0 -99 0 -155 -1 l-101 -1 -7 42
c-4 24 -6 115 -5 203 2 89 2 182 2 209 l-2 47 -170 0 -170 0 0 145 0 145 -160
0 -160 0 0 200 0 200 325 0 325 0 0 -200z m-2717 -999 l137 -1 0 -165 0 -165
175 0 175 0 0 165 c0 91 3 166 8 166 4 1 204 3 445 4 l437 3 0 -164 0 -164
-300 0 -300 0 -1 -32 c0 -18 0 -79 1 -136 l1 -102 -480 0 -481 1 0 134 0 135
-445 0 -445 0 0 160 0 159 113 4 c61 2 272 2 467 1 195 -2 417 -3 493 -3z
m3587 -461 l0 -130 -150 0 -150 0 0 123 c0 68 2 126 5 129 3 2 70 5 150 7
l145 2 0 -131z m-4310 -260 l0 -130 -175 3 -175 2 0 128 0 127 175 0 175 0 0
-130z m5040 0 l0 -120 -365 0 -365 0 0 120 0 120 365 0 365 0 0 -120z m-5400
-292 l0 -153 -179 0 c-99 0 -183 3 -187 7 -4 4 -13 3 -21 -3 -10 -9 -13 -82
-13 -370 l0 -359 -130 0 -130 0 0 108 c0 59 -3 225 -7 370 l-6 262 147 0 147
0 -3 145 -4 145 193 0 193 0 0 -152z m1210 -3 l0 -155 -425 0 -425 1 0 154 0
155 425 0 425 0 0 -155z m1248 -186 c2 -271 5 -338 16 -342 7 -3 71 -5 142 -4
l129 2 3 198 2 197 955 0 954 0 3 -195 3 -195 -203 0 -202 0 2 -177 3 -178
198 -3 197 -2 0 -165 0 -165 43 -1 c23 0 107 -2 187 -2 l145 -2 0 -160 0 -160
-1147 -3 -1148 -2 0 -180 0 -180 -235 0 -235 0 0 180 0 180 -1137 2 -1138 3 0
160 0 160 188 3 188 2 -1 28 c-1 15 -2 170 -1 345 l1 317 869 0 869 0 4 68 c2
37 3 162 2 277 -1 116 0 238 3 273 l6 62 166 -2 166 -3 3 -336z m-600 -2336
l-3 -558 -744 0 -744 0 2 393 3 392 -186 0 -186 0 0 165 0 165 930 0 930 0 -2
-557z m3172 387 l0 -160 -185 0 -185 0 0 -395 0 -395 -754 0 c-426 0 -757 4
-760 9 -3 5 -3 254 1 555 l6 546 939 0 938 0 0 -160z"/>
<path d="M3490 4250 l0 -200 208 2 207 3 3 198 2 197 -210 0 -210 0 0 -200z"/>
<path d="M6310 4255 l0 -205 200 0 200 0 0 205 0 205 -200 0 -200 0 0 -205z"/>
<path d="M3828 2628 l-3 -363 -422 -3 -423 -2 -2 182 -3 183 -182 2 -183 2 0
-179 0 -180 180 0 180 0 0 -170 0 -170 263 -2 262 -3 3 -167 2 -168 170 0 170
0 0 -175 0 -175 793 0 c437 0 1017 3 1290 7 l497 6 2 166 3 166 172 3 173 2 2
168 3 167 248 3 247 2 0 170 0 170 185 0 184 0 3 171 c2 94 0 173 -3 175 -5 3
-263 7 -336 5 l-33 -1 0 -175 0 -175 -217 -2 c-120 -1 -310 -2 -423 -3 l-205
0 -3 363 -2 362 -1295 0 -1295 0 -2 -362z m1975 3 l277 -1 -2 -342 -3 -343
-357 -3 -358 -2 0 -160 0 -160 -127 -2 c-71 0 -180 -2 -243 -2 l-115 -1 -3
162 -2 163 -348 2 -347 3 0 340 0 340 615 5 c338 3 642 4 675 3 33 -1 185 -2
338 -2z"/>
<path d="M10080 80 l0 -80 80 0 80 0 0 80 0 80 -80 0 -80 0 0 -80z"/>
</g>
</svg>
